<?xml version="1.0" encoding="UTF-8" standalone="no"?><!DOCTYPE svg PUBLIC "-//W3C//DTD SVG 1.1//EN" "http://www.w3.org/Graphics/SVG/1.1/DTD/svg11.dtd"><svg width="100%" height="100%" viewBox="0 0 1022 265" version="1.1" xmlns="http://www.w3.org/2000/svg" xmlns:xlink="http://www.w3.org/1999/xlink" xml:space="preserve" xmlns:serif="http://www.serif.com/" style="fill-rule:evenodd;clip-rule:evenodd;stroke-linejoin:round;stroke-miterlimit:2;"><g><g><g><path d="M116.337,18.823l97.514,56.3l0,112.599l-97.514,56.3l-97.514,-56.3l-0,-112.599l97.514,-56.3Z" style="fill:#194560;"/><path d="M125.749,2.522l97.514,56.3c5.824,3.362 9.411,9.576 9.411,16.301l0,112.599c0,6.725 -3.587,12.939 -9.411,16.302l-97.514,56.299c-5.824,3.363 -13,3.363 -18.823,0l-97.515,-56.299c-5.823,-3.363 -9.411,-9.577 -9.411,-16.302l-0,-112.599c0,-6.725 3.588,-12.939 9.411,-16.301l97.515,-56.3c5.823,-3.363 12.999,-3.363 18.823,-0Zm-9.412,16.301l-97.514,56.3l-0,112.599l97.514,56.3l97.514,-56.3l0,-112.599l-97.514,-56.3Z" style="fill:#194560;"/><path d="M116.337,17.832l98.372,56.795l0,113.591l-98.372,56.795l-98.372,-56.795l-0,-113.591l98.372,-56.795Z" style="fill:#194560;"/><clipPath id="_clip1"><path d="M116.337,17.832l98.372,56.795l0,113.591l-98.372,56.795l-98.372,-56.795l-0,-113.591l98.372,-56.795Z"/></clipPath><g clip-path="url(#_clip1)"><g><path d="M136.038,73.064c97.802,-43.4 213.191,2.457 257.515,102.34c44.324,99.884 0.906,216.212 -96.896,259.612c-97.802,43.4 -213.19,-2.457 -257.514,-102.34c-44.324,-99.884 -0.907,-216.212 96.895,-259.612Z" style="fill:#194560;"/><path d="M162.615,61.27c97.802,-43.4 213.19,2.457 257.514,102.341c44.324,99.883 0.907,216.211 -96.895,259.612c-97.802,43.4 -213.19,-2.457 -257.514,-102.341c-44.324,-99.883 -0.907,-216.211 96.895,-259.612Z" style="fill:#fff;"/></g><path d="M185.768,52.351c98.203,-43.578 213.311,0.77 256.889,98.973c43.578,98.203 -0.77,213.311 -98.973,256.889c-98.202,43.578 -213.31,-0.77 -256.888,-98.973c-43.578,-98.203 0.77,-213.311 98.972,-256.889Z" style="fill:url(#_Linear2);"/></g></g></g><g><g><path d="M426.658,54.797l-56.435,-0l0,155.632l-31.201,0l0,-155.632l-55.938,-0l-0,-25.359l143.574,0l0,25.359Z" style="fill:#194560;fill-rule:nonzero;"/><path d="M484.337,167.17l27.347,-91.241l32.196,0l-53.452,154.887c-8.204,22.623 -22.127,33.935 -41.767,33.935c-4.392,0 -9.24,-0.749 -14.544,-2.249l-0,-23.482l5.718,0.373c7.624,-0 13.363,-1.387 17.216,-4.162c3.854,-2.774 6.9,-7.432 9.137,-13.973l4.351,-11.551l-47.237,-133.778l32.569,0l28.466,91.241Z" style="fill:#194560;fill-rule:nonzero;"/><path d="M614.859,188.8c7.541,-0 13.798,-2.196 18.771,-6.588c4.972,-4.393 7.624,-9.821 7.955,-16.285l28.466,0c-0.331,8.37 -2.941,16.181 -7.831,23.432c-4.889,7.251 -11.519,12.99 -19.889,17.217c-8.37,4.226 -17.403,6.339 -27.099,6.339c-18.812,0 -33.729,-6.091 -44.75,-18.273c-11.022,-12.182 -16.533,-29.005 -16.533,-50.468l-0,-3.108c-0,-20.469 5.469,-36.857 16.408,-49.163c10.939,-12.307 25.856,-18.46 44.751,-18.46c15.994,0 29.025,4.662 39.094,13.985c10.069,9.323 15.352,21.567 15.849,36.732l-28.466,0c-0.331,-7.707 -2.962,-14.046 -7.893,-19.019c-4.931,-4.972 -11.209,-7.458 -18.833,-7.458c-9.779,-0 -17.32,3.543 -22.624,10.628c-5.303,7.086 -7.997,17.838 -8.08,32.258l0,4.848c0,14.585 2.632,25.462 7.894,32.63c5.262,7.169 12.866,10.753 22.81,10.753Z" style="fill:#194560;fill-rule:nonzero;"/><path d="M722.633,90.597c9.862,-11.436 22.334,-17.154 37.417,-17.154c28.673,0 43.217,16.367 43.631,49.101l0,87.885l-30.206,0l-0,-86.766c-0,-9.282 -2.01,-15.849 -6.029,-19.703c-4.019,-3.853 -9.924,-5.78 -17.714,-5.78c-12.099,0 -21.132,5.387 -27.099,16.16l0,96.089l-30.206,0l-0,-190.935l30.206,-0l0,71.103Z" style="fill:#194560;fill-rule:nonzero;"/><path d="M828.543,141.936c-0,-13.176 2.61,-25.048 7.831,-35.614c5.221,-10.566 12.555,-18.687 22.003,-24.364c9.447,-5.677 20.303,-8.515 32.568,-8.515c18.149,0 32.879,5.842 44.191,17.527c11.312,11.685 17.424,27.182 18.335,46.491l0.125,7.086c-0,13.259 -2.549,25.11 -7.645,35.551c-5.097,10.442 -12.389,18.522 -21.878,24.24c-9.489,5.718 -20.449,8.577 -32.879,8.577c-18.978,0 -34.164,-6.319 -45.559,-18.956c-11.395,-12.638 -17.092,-29.482 -17.092,-50.531l-0,-1.492Zm30.206,2.611c0,13.839 2.859,24.675 8.578,32.506c5.718,7.831 13.673,11.747 23.867,11.747c10.193,-0 18.128,-3.978 23.804,-11.934c5.677,-7.955 8.515,-19.599 8.515,-34.93c0,-13.591 -2.921,-24.364 -8.763,-32.32c-5.843,-7.955 -13.778,-11.933 -23.805,-11.933c-9.862,-0 -17.693,3.916 -23.494,11.747c-5.801,7.831 -8.702,19.537 -8.702,35.117Z" style="fill:#194560;fill-rule:nonzero;"/></g><g><path d="M981.182,24.366l-10.843,0l-0,29.904l-5.995,-0l-0,-29.904l-10.748,0l-0,-4.872l27.586,-0l0,4.872Z" style="fill:#194560;fill-rule:nonzero;"/><path d="M993.578,19.494l10.032,26.655l10.007,-26.655l7.811,-0l-0,34.776l-6.019,-0l-0,-11.465l0.597,-15.334l-10.27,26.799l-4.324,-0l-10.246,-26.775l0.597,15.31l0,11.465l-6.019,-0l0,-34.776l7.834,-0Z" style="fill:#194560;fill-rule:nonzero;"/></g></g></g><defs><linearGradient id="_Linear2" x1="0" y1="0" x2="1" y2="0" gradientUnits="userSpaceOnUse" gradientTransform="matrix(-366.069,-43.5405,43.5405,-366.069,444.675,255.795)"><stop offset="0" style="stop-color:#7f287b;stop-opacity:1"/><stop offset="0.31" style="stop-color:#bb2046;stop-opacity:1"/><stop offset="0.5" style="stop-color:#dd542c;stop-opacity:1"/><stop offset="0.72" style="stop-color:#e66e28;stop-opacity:1"/><stop offset="1" style="stop-color:#f59623;stop-opacity:1"/></linearGradient></defs></svg>