/* XPM */
static char * icon_48x48_xpm[] = {
"48 48 244 2",
"  	c #FFFFFF",
". 	c #FCFCFC",
"+ 	c #F0F4F0",
"@ 	c #F0F0EC",
"# 	c #FFFFFE",
"$ 	c #FCFCF8",
"% 	c #F4F5F5",
"& 	c #F8F8F8",
"* 	c #E8E8E4",
"= 	c #D4D8D4",
"- 	c #D0D4D0",
"; 	c #F4F4F0",
"> 	c #D8D8D8",
", 	c #EAEBEC",
"' 	c #606C70",
") 	c #CCDCE0",
"! 	c #E4E8E4",
"~ 	c #E8E8E8",
"{ 	c #F4F8F4",
"] 	c #F8F8F4",
"^ 	c #ECF0EC",
"/ 	c #F8FCF8",
"( 	c #E8ECE8",
"_ 	c #B8B8B8",
": 	c #B0B4B0",
"< 	c #F8FCFC",
"[ 	c #B8C8CC",
"} 	c #283438",
"| 	c #B0C0C4",
"1 	c #ECECEC",
"2 	c #DCDCD8",
"3 	c #E0E0DC",
"4 	c #A8A8A4",
"5 	c #A0A09C",
"6 	c #ECECE8",
"7 	c #9CB4B8",
"8 	c #384848",
"9 	c #A8C0C8",
"0 	c #E4F0F4",
"a 	c #E8F0F4",
"b 	c #C8CCC8",
"c 	c #F4F8FC",
"d 	c #6C7C80",
"e 	c #3C4444",
"f 	c #9CACB0",
"g 	c #D4E4E8",
"h 	c #E0E4E4",
"i 	c #F4FCFC",
"j 	c #D0D0CC",
"k 	c #CCD0CC",
"l 	c #4C5860",
"m 	c #2C3438",
"n 	c #E4E4E0",
"o 	c #DCF0F4",
"p 	c #3C4850",
"q 	c #181C1C",
"r 	c #A4C8D0",
"s 	c #E4F4F8",
"t 	c #E8F8F8",
"u 	c #E8F0F0",
"v 	c #D8D8D4",
"w 	c #202C30",
"x 	c #242C2C",
"y 	c #D8DCD8",
"z 	c #E0ECF0",
"A 	c #BCD4DC",
"B 	c #343C40",
"C 	c #040400",
"D 	c #98B0B4",
"E 	c #D4ECF0",
"F 	c #D4E4EC",
"G 	c #E4E8EC",
"H 	c #E4ECEC",
"I 	c #D8E0E0",
"J 	c #C0DCE4",
"K 	c #ECF0F4",
"L 	c #D4E4E4",
"M 	c #ACC8CC",
"N 	c #141818",
"O 	c #DCE4E4",
"P 	c #CCE4EC",
"Q 	c #20282C",
"R 	c #546468",
"S 	c #B8D0D8",
"T 	c #DCECF0",
"U 	c #CCD0D4",
"V 	c #88B8C8",
"W 	c #D0D8D8",
"X 	c #DCECF4",
"Y 	c #C4DCE0",
"Z 	c #70888C",
"` 	c #0C1014",
" .	c #A8CCD8",
"..	c #B8D0D4",
"+.	c #DCE8E8",
"@.	c #74A8BC",
"#.	c #C4D4DC",
"$.	c #ACC4C8",
"%.	c #647C88",
"&.	c #000400",
"*.	c #94ACB0",
"=.	c #E0F0F4",
"-.	c #F0F0F0",
";.	c #F0F4F8",
">.	c #D0E8EC",
",.	c #84A8B0",
"'.	c #98BCC4",
").	c #70A0AC",
"!.	c #B4D0DC",
"~.	c #304850",
"{.	c #50646C",
"].	c #C8D8E0",
"^.	c #CCD8D8",
"/.	c #CCE4E8",
"(.	c #60848C",
"_.	c #203438",
":.	c #CCE8F4",
"<.	c #80B0C0",
"[.	c #789CA4",
"}.	c #849CA0",
"|.	c #34545C",
"1.	c #28383C",
"2.	c #38606C",
"3.	c #BCE0E8",
"4.	c #D8F0F4",
"5.	c #74A8B4",
"6.	c #7C98A0",
"7.	c #E8F4F4",
"8.	c #D0ECF0",
"9.	c #3C6C78",
"0.	c #101C1C",
"a.	c #ACC8D4",
"b.	c #3C5458",
"c.	c #142020",
"d.	c #E4F4F4",
"e.	c #78A0AC",
"f.	c #88989C",
"g.	c #E0F0F0",
"h.	c #344048",
"i.	c #4C8090",
"j.	c #9CC0C8",
"k.	c #D0DCDC",
"l.	c #B4CCD0",
"m.	c #345860",
"n.	c #447480",
"o.	c #708894",
"p.	c #909C9C",
"q.	c #A4BCC0",
"r.	c #181C20",
"s.	c #589CB0",
"t.	c #18282C",
"u.	c #2C4044",
"v.	c #38444C",
"w.	c #B8DCE4",
"x.	c #909898",
"y.	c #A4C0CC",
"z.	c #D8E8F0",
"A.	c #687C84",
"B.	c #243038",
"C.	c #5CB4D0",
"D.	c #44585C",
"E.	c #6C8488",
"F.	c #448494",
"G.	c #C0D8DC",
"H.	c #8C9898",
"I.	c #C8E0E4",
"J.	c #4C5858",
"K.	c #1C2C30",
"L.	c #5CC0D8",
"M.	c #C0E4EC",
"N.	c #40707C",
"O.	c #5090A0",
"P.	c #04080C",
"Q.	c #688C94",
"R.	c #80A4AC",
"S.	c #88A0A4",
"T.	c #0C1414",
"U.	c #64C4DC",
"V.	c #080C10",
"W.	c #58A8BC",
"X.	c #54747C",
"Y.	c #8CB0B8",
"Z.	c #000004",
"`.	c #50A0B4",
" +	c #1C3438",
".+	c #385054",
"++	c #607478",
"@+	c #5CC4E4",
"#+	c #5098AC",
"$+	c #183034",
"%+	c #142028",
"&+	c #345058",
"*+	c #1C3840",
"=+	c #2C5058",
"-+	c #54ACC8",
";+	c #243C44",
">+	c #6CA4B4",
",+	c #94C8D4",
"'+	c #C0D0D8",
")+	c #88B0C0",
"!+	c #80A8B4",
"~+	c #244C58",
"{+	c #446870",
"]+	c #CCDCE4",
"^+	c #C4C8C4",
"/+	c #7CACB8",
"(+	c #7498A0",
"_+	c #182C30",
":+	c #88A4B0",
"<+	c #74A4B0",
"[+	c #5C8490",
"}+	c #14282C",
"|+	c #447C8C",
"1+	c #F0E8E8",
"2+	c #4C94A8",
"3+	c #182024",
"4+	c #244048",
"5+	c #407488",
"6+	c #E0E4E8",
"7+	c #C8E4F0",
"8+	c #283C40",
"9+	c #5C7480",
"0+	c #405864",
"a+	c #1C2024",
"b+	c #9CC0CC",
"c+	c #84A0A8",
"d+	c #8CA4A8",
"e+	c #648C9C",
"f+	c #404C4C",
"g+	c #C4E4EC",
"h+	c #7C8C90",
"i+	c #70949C",
"j+	c #305864",
"k+	c #284C54",
"l+	c #24383C",
"m+	c #D4DCDC",
"n+	c #445458",
"o+	c #7098A8",
"p+	c #506C74",
"q+	c #60A0B0",
"r+	c #9CB8C0",
"s+	c #9CC4D4",
"t+	c #343838",
"u+	c #34484C",
"          . . + @ . .   #   . $ $ . . #     .   .   .                                           ",
"  %   . & + * = - * .   $ . ; >         .     ; ;   .                                           ",
"  , ' ) ! ~ { &   . ] @ ^ * .     .   / . { ( _ : ! ; / / .   .   .                             ",
"  < [ } | < < . { ^ 1 + .       / ; + 2 ! 3 - 4 5 - 2 ( 2 { 6 . .                               ",
"  ] ! 7 8 9 0 a 1 ^ .       / ! ^ ! @ { { { @ - b 6 + ] ; ] ! + 3 / /   .                       ",
". + ( c d e f g h i <   / ~ ~ 6 ; / ^ 2 - j k j k j - j = ! ; ] ^ ^ 3 / . < <       l m         ",
". n { i o p q r s t < u ~ + ; + 3 - v 3 ^ ; ] / / / ] @ ( 2 - - ~ ; + ~ ~ < t s   w x           ",
"@ y / . z A B C D E F G H { I k 2 + /     .   ] J     .   . / ! - = 6 K H L E M N N             ",
"( = . ] ~ O P Q C R S T G U 3 ; /     .       ! V .   .         / ( W W X Y Z C C M             ",
"$ n $ ( ( i s J ` C p  ...+.c <   .     .   . ..@./     .   .   < < K #.$.%.&.&.*.=.s           ",
". . { -./ < ;.>.,.C C ` '.E s i <   .   .     '.).] .     .   . < ;.=.!.~.w C {.].=.i           ",
"    + @   . ;.^./.(._.C &.%.:.=.t < <       / <.[.;.  .   . < i t X }.|.w &.1.J /.G < .         ",
"# / 6   . ] 3 ;.L M p 2.&.C ~.3.4.t i <   . / 5.6.G   .   < c 7.8.Z 9._.&.0.a.#.K ~ !           ",
"  ] (     + ~ u U F P b.2.C &.c.'.4.d.i i   ;.e.f.L   < i c g.Y h.i.w &.C j.E k.I -.6 /         ",
". {     + 2 / v I i s l.m.n.C &.&.o.:.=.c < K [.p.].< i ;.=.q.r.s.t.C &.6.E t K U ^ ( 3 .       ",
"/ = .   + @ ( - ] < ;.s *.u.i.&.C &.v.w.4.t F 6.x.y.i t z.A.B.C.w &.&.D.:.s i < ! v { @ /       ",
"]     { 2 / v ! .   i c =.E.i.F.&.&.&.t.j.E G.}.H.<.=.I.J.K.L.w &.&.B.M.s i /   / = + 3 !       ",
". .   ] @ + - ]     / < 7.z.B N.O.C &.&.P.Q. .R.S.5.l.T.m.U._.&.C V. .s c <     . 3 2 { -./     ",
".   . 3 + 3 2   .   . . i 7.P x W.F.&.C &.C |.e.,.X.V.n.U.w &.&.P.Y.4.t / .   .   + j { 2 ; .   ",
"    / + ] - (     .     / i 7.M Z.C.s.&.&.&.&.Z.C &.`.U._.&.C &.o.E t i     .     ] - @ + {     ",
"  . + 2 + b ;   .     .   < ;.s *.r.U.F.C &.&.&.&.i.U. +&.&.&..+:.s i <   .     .   2 ! 6 3     ",
"    ; + @ - /       .   .   i ;.X ++T.@+#+C T.i.#+$+%+&.&.C w M.=.c   .       .     ! 3 / + .   ",
". . ( 3 ! v /   . .     . & ;.u Y y.&+*+U.=+-+U.U.U.;+&.C Z.>+,+Y ~ -./ /   .     . @ 2 -.- ;   ",
"  @ : _ = = . ;.+.L '+$.)+!+e.6.}.}.,.0.&.~+U.@+@+@+#+&.C {+,.}.}.6.[.e.!+j.M ]+F i + = ^+5 k   ",
"  3 5 5 k = ] Y j./+).(+}.f.x.p.p.S.Y.K.C _+L.U.U.@+O.&.&.X.:+p.x.p.}.6.[.<+)+$.]+{ + - ^+5 ^+  ",
". ] = v 3 = .   / / ] @ ! '+r <.@.@.[+C &.}+=+U.U.@+=+|+=+V.).@.V r ^.1+{ / /     . @ 2 + 2 +   ",
"    ^ ! 6 = ]     .     .   i ;.4.,.&.&.&.&.t.n.U.2+C F.@+*+u.>.7.i <   .     .     ( 3 + 2 /   ",
"  . ; ! ; k / .       .   < c =.3.3+C &.&.4+-+%+C C &.&.5+U.w ++X c i     .     .   3 3 ] (     ",
".   / 6++ - @   .   .   < i s 7+8+&.&.&. +U.`.P.&.&.&.&.C F.L.V.S.=.c < .     .   / = ( ~ (     ",
"    ] 3 ] 2 3     .   . < t :.9+C &.&._.U.n.T.%.(+0+C &.&.C n.C.r.Y s c <   .     ; k + @ ; .   ",
"    . @ ( 6 = /   .   < t 4.'.&.&.C %+U.{+a+b+c+d+@.e+V.&.&.&.i.#+N Y 7.i <   .   ~ = + 2 /     ",
"  .   @ ( / = @     < c =. .` &.&.*+@+K.R /.Y }.p.5.E '.w &.&.&.N.#+f+E t i <   / = ~ { ( /     ",
"        ! + 3 = < < c s g+8+&.&.w C.3+h+X t F }.x.)+t 4.3.v.C &.&.{+m.++X ;.< . @ - ] 3 ]       ",
"    .   @ @ { j 6 i t :.b.C C 8+`.w l.=.;.i K [.x.y.< t s :.i+&.C &.j+N.D =.;.c = ! & ^ / .     ",
"        / 3 ^ ~ W d.4.6.&.&.4+i.B I.7.c < < ] e.p.'+  < c 7.4.'.c.&.C k+u.$.s I U { 2 ;         ",
"      .   + @ ;.W #.r &.&.l+~.++E 7.c / .   / R.}.m+.   / i t 4.M.p &.&.|.&+'+..u K + / .       ",
"          . G I X r 3+C 4+|.d+X t i /       . )+6.! .     < < t =.:.A.C &.l+b.G.u I ;.          ",
"        . < c z.J n+&.%+8+3.=.;.< <   .   .   r o+u .   .   . < i 7.E j.` &.l+++J g.< <         ",
"          < t >.{.C 0.p+a.X ;.< < .     .     I q+]       .     < < t /.r+p &.P.d+4.t           ",
"          t =.q.&.P.Z /.#.U u / .     .     . @ W./   .     .   / ] I U F 7+D.C C ..            ",
"            S V.r.y./.I K H - = @ /     .     / s+/     .     ] ! U 2 K G ]+P D C 3+            ",
"            a+t+I.=.s I H @ ] 3 = = ! + ] / . . ;.. . / { ^ 3 = = ^ ] ~ u H t =. .a+x           ",
"          x h.  s c < < @ 3 ^ @ / @ 2 - k - 2 = 3 2 = - k = ! { / ( ^ ! / < <       u+m         ",
"                  < .     / 6 3 ( ( / { + 6 ! 2 - 2 ~ @ { ; ] 3 @ 3 ]   .                       ",
"                        .     / @ 6 ! 3 @ ^ + ^+4 = ; ! @ = @ ( ]     .                         ",
"                          .         ] ] + 6 6 : 5 b + ! ] ] /   .   .                           ",
"                              .   .   .       6 2 { .   .     .                                 ",
"                                    .   .   .   .   < s   t                                     "};
